<svg width="512" height="512" viewBox="0 0 512 512" fill="none" xmlns="http://www.w3.org/2000/svg">
<g clip-path="url(#clip0_85_2)">
<rect width="512" height="512" rx="24" fill="white"/>
<g clip-path="url(#clip1_85_2)">
<path d="M497 0H15C6.71573 0 0 6.71573 0 15V497C0 505.284 6.71573 512 15 512H497C505.284 512 512 505.284 512 497V15C512 6.71573 505.284 0 497 0Z" fill="white"/>
<path d="M368.5 470.5C270.892 470.5 135.29 470.5 61.4999 470.5M61.4999 470.5C32.8428 470.5 13.5086 470.5 9.34323 470.5C8.85172 470.5 8.44714 470.857 8.40527 471.347C7.95232 476.644 7.62399 505 52.4999 505C102 505 452.5 505 476 505C496.995 505 502.426 477.462 503.345 471.592C503.437 471.001 502.975 470.5 502.377 470.5H448.5M61.4999 470.5C61.4999 470.5 61.4999 411.99 61.4999 374.5M404 470.5H448.5M448.5 470.5V374.5M448.5 374.5C448.5 374.5 448.5 338 401 338M448.5 374.5C431 374.5 408.998 435.218 386 434.5C353.112 433.473 356 381.5 320.5 381.5C285 381.5 291 434.5 256 434.5C221 434.5 224.5 381.5 190.5 381.5C156.5 381.5 158.249 434.988 125.5 434.5C91.2442 433.99 89.4999 381.5 61.4999 374.5M401 338C353.5 338 162.5 338 112 338M401 338V242C401 242 401 205 354.5 205M61.4999 374.5C61.4999 374.5 61.4999 338 112 338M112 338V249.5M354.5 205V107M354.5 205C337.075 205 311.295 205 283.5 205M112 249.5V242.007C112 242.002 112 242.004 112 242C112.002 241.853 112.589 205 157.5 205M112 249.5C136 249.5 135 288.5 157 288.5C164.692 288.5 170.367 283.491 175.5 276.975M157.5 205V54M157.5 205C174.678 205 200.246 205 228.5 205M228.5 205C246.524 205 265.437 205 283.5 205M228.5 205V174.25M283.5 205V174.25M399.5 247.5C383.5 247.5 375.5 289.5 353 289.5C330.5 289.5 326.5 247.5 302 247.5C277.5 247.5 281.055 289.5 256 289.5C230.945 289.5 231.5 247.525 208 247.525C201.838 247.525 196.913 250.342 192.604 254.5M133.5 85.5L122 96.5M122 60H107M133 34.5L121.5 23.5M157 24.5V8.5M183 34.5L193.5 23.5M193 60H208.5M194.5 96.5L183 85.5M328.5 138.5L318 149M318 113H303.5M328.5 87.5L317 76M353.5 77V62M379 87.5L390.5 76M389.5 113H404.5M391 148L379 137M228.5 174.25V143.5M228.5 174.25H283.5M283.5 174.25V143.5M228.5 143.5V114C228.5 113.448 228.948 113 229.5 113H256M228.5 143.5H283.5M256 113H282.5C283.052 113 283.5 113.448 283.5 114V143.5M256 113L255.017 72.4359M255.017 72.4359C255.088 72.5414 212.654 70.6867 255.172 8.20834C255.561 7.63688 256.452 7.62731 256.853 8.19069C299.413 68.0579 255.017 72.4359 255.017 72.4359ZM159 257H159.5M255.5 257H256M352 257H353M126 398.5H126.5M255.5 398.5H256M385.5 398.5H386" stroke="black" stroke-width="10" stroke-linecap="round" stroke-linejoin="round"/>
</g>
</g>
<defs>
<clipPath id="clip0_85_2">
<rect width="512" height="512" rx="24" fill="white"/>
</clipPath>
<clipPath id="clip1_85_2">
<rect width="512" height="512" fill="white"/>
</clipPath>
</defs>
</svg>
